<?xml version="1.0" encoding="UTF-8" standalone="no"?>
				  <svg
				  xmlns:rdf="http://www.w3.org/1999/02/22-rdf-syntax-ns#"
				  xmlns:svg="http://www.w3.org/2000/svg"
				  xmlns="http://www.w3.org/2000/svg"
				  xmlns:xlink="http://www.w3.org/1999/xlink"
				  version="1.1"  width="375" height="500">
<path style="fill:#697073; stroke:none;" d="M0 0L0 2L0 215L1 214C1 190.608 3.31474 167.303 4.91049 144C6.26997 124.148 5.37665 102.41 10 83L11 84C10.7044 119.708 4 155.255 4 191L5 190C5.00078 182.936 3.4767 170.777 12 169L12 167L10 165L11 164L13 164C13.4057 166.092 13.2167 166.02 15 167L14 168C14.8387 170.626 15.3735 171.161 18 172L18 174C14.5395 176.498 14.101 178.836 14 183L12 183C11.0155 185.332 11.0187 187.457 11 190L13 190L17 190L17 188C15.3648 187.455 15.545 187.635 15 186L16 185L19 188L20 187L19 180L20 179L21 180L26 180L27 179L27 177C31.2474 165.331 20.2424 163.379 20 152L19 153L19 162L17 162L16 148L18 148L19 147L19 145L17 145L14 147L13 146L14 145L22 141L22 143L23 144L24 143L25 142L24 141L25 137L27 137C29.2961 139.234 29.7703 140.802 30 144L32 144L32 141L34 141L34 144L35 145L37 145L37 143L36 139L34 139L33 140C33 138.147 33.2997 138.65 32 138L32 136C33.8532 136 33.3501 136.3 34 135C40.7895 141.538 35.8236 145.706 34 153L36 153C38.7495 149.797 40.6978 147.304 41 143L43 143C44.0977 140.387 43.9928 137.836 44 135L42 135L40 140L39 139C38.4125 135.597 37.3506 134.728 34 134L35 133L36 132L38 132L37 131L31 131L31 129C35.789 129.153 38.6707 131.458 43 133L43 131C41.4648 125.669 42.9613 122.879 45 118L46 119L46 121C45.0143 122.479 45 122.203 45 124L50 124L50 126L51 127L52 126L53 125L52 124L52 122L54 122C55.6527 123.513 56.894 124.181 59 125L59 123L67 125L66 126L64 126L64 128L64 130L69 130L69 132C67.6242 134.862 67.2515 137.838 67 141L65 141C63.686 139.382 63.1227 139.307 61 139L61 141L61 143L64 143L65 144L65 146L65 148L63 148L59 148L59 150L61 154L63 154L64 153L64 151C70.8077 142.745 70.8788 128.999 74 119L76 119L76 122L77 123L84 105L86 105L87 106C82.1238 112.849 78.4338 121.53 78 130L84 128L85 129L85 131C86.2997 130.35 86 130.853 86 129C89.1464 128.592 91.2909 127.653 94 126L95 127L94 128L91 130L92 131L94 131C96.3538 128.454 100.256 125.029 97 122L97 120L99 120C100.968 122.216 102.164 123.19 105 124L105 122L98 111L99 110C101.093 112.89 102.773 115.649 104 119L106 119L106 117L102 108L104 108C101.781 102.763 98.8394 99.4414 93 99L93 97C97.617 97.0005 102.49 96.6313 106.715 98.8295C110.128 100.605 116.912 106.768 120.79 106.093C125.774 105.226 125.922 95.7405 126 92L124 92L123 91C130.491 82.976 143.065 78.3038 154 78.7685C157.765 78.9286 160.065 82.6583 164 82.1026C185.896 79.0108 207.613 69.0173 230 69L230 67L225 67L225 65L227 64L227 62L225 62C223.584 64.0416 223.255 65.511 223 68L222 67L220 62L222 62L223 61L222 60L216 60L216 58C215.35 56.7003 215.853 57 214 57L214 55C221.955 58.6413 226.564 60.5952 228 50L230 50L234 51L234 49C229.379 47.0643 225.912 48.4362 224 53L222 53L221 52L221 50C219.919 46.3433 220 42.8008 220 39L218 39C216.08 40.2966 215.684 40.791 215 43L213 43L210 42L210 44L211 46L209 46C206.704 43.7655 206.23 42.1983 206 39C204.7 39.6498 205 39.1467 205 41C201.508 39.9433 200.568 38.5824 200 35L202 35L203 34L203 32C197.003 28.7197 195.289 26.7102 188 28L188 26L185 25L185 23L187 20L187 18L185 14L188 14L189 13L188 12L184 11L184 13L181 13L182 15C184.094 21.3376 180.664 26.7652 185 33L184 34L183 33L179 33L179 35L180 41L178 41C175.019 39.8361 172.292 43.3532 171 46L169 46L169 43L168 42L166 42L166 38L164 38L159 39L160 40L160 42L158 42L157 41L157 39C160.559 37.0178 163.978 36.7078 168 37L169 36L168 35L166 35L165 34C164.693 31.8772 164.618 31.314 163 30L163 28L165 28L167 28C167.178 30.597 167.499 31.8869 169 34L170 33C169.955 28.9551 167.689 24.362 170 21L169 20L165 20L165 18C166.286 14.7414 167.718 11.6535 170 9L169 7C169.892 5.06152 170.402 4.48099 172 3L172 1L170 1L168 1L168 3C166.521 3.98569 166.797 4 165 4L165 6L167 10L165 10L164 13L163 12L163 10L165 9L164 7L162 6L161 7L162 8L161 13L159 13L157 9L155 9L155 12L154 13L153 12L153 7L150 7L149 6L150 5C153.743 4.91357 155.502 6.28867 158 9L159 8L159 6L158 3L160 3L166 3L165 2C111.167 -4.80341 54.2645 0 0 0z"/>
<path style="fill:#5a605c; stroke:none;" d="M151 0L152 1L166 2L165 3L158 3L158 5L159 9L158 8C154.859 5.13983 152.945 4.06396 149 6L150 7L152 7L153 8L153 13L155 13L155 9L157 9L159 13L161 13L161 7L162 6L165 8L163 9L163 13L164 12L167 10L167 8L165 4L167 4L168 1L170 1L172 1L172 3C169.428 4.85794 169.272 5.93494 170 9L168 9L165 20L170 20L168 21L170 34L168 33L167 28L165 28L163 28L163 30C164.422 31.7885 164.697 32.7057 165 35L168 35L169 36L168 37C163.406 36.4873 158.909 36.2498 157 41L158 42L160 42L160 40L159 39L166 38L166 41L167 42L169 42L169 46L171 46C173.69 42.8679 175.761 41.0554 180 41L180 39L179 33L181 33L184 34L185 33C182.004 27.0961 184.707 18.2131 181 14L182 13L184 13L184 11L186 11L189 13L188 14L186 14L185 15L187 20L185 20L185 25L187 25C187.986 26.4785 188 26.2032 188 28L190 28C196.086 27.1302 197.824 30.2772 203 32L203 34C201.522 34.9856 201.797 35 200 35L200 37C200.935 39.842 202.628 41.6167 205 39L206 40C206.3 43.8644 207.089 45.3483 211 46L211 44L210 42L212 42C213.478 42.9857 213.203 43 215 43L215 41L220 39L220 41L221 53L223 53C226.639 49.4203 228.803 48.0615 234 48L234 50L228 50L228 53C223.978 59.8449 221.495 58.0889 215 55L214 56L216 60L218 60L223 60L222 61L220 62L220 64L222 68L223 67L224 62L226 62L227 63C225.703 64.5944 225.465 65.0182 225 67L230 67L230 69C219.461 69.0012 209.753 72.9704 199 73L200 74C219.453 74.8354 242.016 78.3291 260.91 83.169C268.11 85.0132 274.61 88.748 282 90L282 92L280 92L281 93C289.857 100.992 293.715 111.068 301.277 119.946C305.85 125.315 311.947 126.857 317 131L319 131L321 129L322 130L322 132L322 134L320 134L313 134L313 136C316.013 140.708 318.124 146.494 321.553 150.826C324.153 154.111 328.799 155.918 330.977 159.39C338.147 170.822 334.866 180.704 350 185L350 187L348 187L344 186L344 188C346.029 190.414 346.87 191.082 350 191L350 193C352.71 194.149 355.067 194.746 358 195L358 197L357 198L355 198C351.902 195.993 347.452 197.783 351 201L351 203L348 203C343.237 210.005 357 225.137 361 231L360 232L359 231L358 229L356 229L356 231C357.094 233.357 357.835 234.599 360 236L360 238C359.009 241.357 360.15 244.048 363 246L363 248L361 248L362 250C366.764 256.021 370.492 263.175 374 270L375 269L375 0L373 0L151 0z"/>
<path style="fill:#161817; stroke:none;" d="M123 92L125 92C125.884 95.5086 125.521 105.748 119.91 105.463C115.651 105.247 110.568 100.145 106.715 98.3896C102.508 96.4729 97.5023 97 93 97L93 99C98.4845 99.8486 101.169 103.478 104 108L102 108L106 119L104 119C103.23 115.632 101.784 112.955 100 110L98 110L98 112L105 123L104 124L102 124L100 120L98 120L97 121C99.263 125.95 95.2729 129 91 131L92 129L95 127L94 126C89.2654 128.121 84.5204 129.683 83 135L85 134C87.9181 132.973 101.007 132.536 98.5424 138.835C96.9059 143.017 88.7922 147.801 85 150L85 152L87 152C88.2997 151.35 88 151.853 88 150L90 150L90 152C86.2554 155.542 83.0958 162.289 81 167L79 167L79 165L82 162L81 161L80 162C74.9352 168.338 71.1733 177.863 71 186L72 185L75 175L76 176L78 176L78 173C80.8166 170.623 82.6929 167.71 86 166L86 163L97 156L97 158C94.7131 163.823 89.5418 167.777 88 174L86 174L86 172L84 172L84 174C84.6229 181.236 82.0049 188.627 82 196L80 196L81 176L80 177C76.4247 188.984 79.1953 201.91 80 214L82 214C86.6428 202.51 85.0396 190.166 92 179L93 180C93.2014 183.626 93.119 186.521 92 190L93 191L94 190C102.061 176.038 108.783 157.21 114 142L112 142L114 141C114.899 138.876 114.876 138.899 117 138L118 118L120 118L121 127L123 127L123 125C118.807 110.079 129.969 104.461 132 91L134 91L134 93L136 93L141 90L140 89C141.157 85.0994 143.059 83.8038 147 83L146 85L142 87L142 89L144 89L156 83L157 84L156 85L150 88L151 89L153 89C156.145 87.7336 158.634 87.8123 162 88L162 90C146.468 88.4108 132.14 99.1545 128.958 114C128.176 117.649 125.139 124.235 128 127L128 129L126 129L125 128L125 130L126 132L128 132L131 126L133 126C139.568 127.941 146.41 126.227 153 127.337C161.029 128.69 166.497 132.024 175 130L175 132L180 133L180 131C182.265 130.259 183.547 129.843 185 128L187 128L187 130L189 130C190.672 128.875 190.328 128.875 192 130L194 130L194 128L192 126L193 125L195 125C198.052 128.973 206.243 128.489 211 130L212 129L211 128L204 124L204 122C205.3 121.35 205 121.853 205 120L203 120C196.412 113.837 187.15 114.12 180 109L181 108C194.678 108.627 221.721 121.391 228 134L226 134C225.35 132.7 225.853 133 224 133L224 135C230.507 141.643 238.827 146.97 244.49 154.425C248.487 159.687 249.923 165.894 254.443 171.035C260.199 177.582 268.385 182.912 272 191L270 191L267 186L265 186L265 188L272 193L272 195L271 196L269 196C264.286 187.792 255.385 185.402 253 175L251 175L249 175L249 177C251.472 180.495 253.209 185.301 256.299 188.215C260.453 192.133 272.388 197.095 273.222 203.184C273.709 206.732 270.262 210.801 269 214L267 214L267 211L265 206L263 206C261.1 209.171 261.031 212.354 261 216L259 216L257 213L255 213L254 214L254 216C252.7 216.65 253 216.147 253 218L251 218C237.812 212.454 214.76 214.488 203 222L202 221L203 220C204.797 220 204.521 219.986 206 219L206 217L204 217C201.269 218.581 199.155 219.188 196 219L196 221C188.454 225.486 180.097 231.388 171 232.352C164.798 233.009 158.257 231.017 152 231L152 229L154 200L153 201C147.85 207.476 149.022 221.881 149 230L147 230C138.749 226.385 128.055 221.268 119 221L120 222L120 225L118 225C109.231 223.372 100.577 224.781 92 227L92 225C94.7278 215.772 94.7935 201.695 95 192L93 192C88.2892 201.713 88.13 216.457 90 227L81 227L80 228C78.0469 229.724 76.5367 230.345 74 231L74 233L76 233C87.5959 228.677 99.7918 227.543 112 226L112 228C106.012 228.757 97.767 228.414 92.2855 230.923C83.4774 234.955 77.1261 243.756 67 244L67 246C72.0281 258.733 79.6322 270.604 84 284L81 284L80 285L80 287C78.0536 289.168 77.0157 291.266 76 294L77 295L78 294L79 295L76 300L77 301L84 296L84 298L85 305L82 305C64.3099 313.236 44.5867 319.072 26.0895 324.715C17.2065 327.424 9.64133 332.581 0 334L0 336L0 349L2 349C16.4034 349.618 30.0254 344.806 44 345.054C52.8251 345.211 59.9578 349.126 68.1698 351.226C76.5036 353.357 82.5202 351.967 90 358L89 359L87 359L86 360L88 364L87 365C79.794 365 52.2808 361.598 51 369L53 369C56.8061 367.181 60.6961 371.672 65 372L65 374C61.7974 374.995 58.3438 377.583 55.0895 377.964C51.4869 378.385 45.875 372.671 47 380L46 381L37 382L37 379C34.1336 371.173 32.583 360.334 31 352L29 352L35 382L33 382C22.15 379.417 10.9942 381.442 0 381L0 383L0 385L2 385C15.2078 385 29.9224 388.594 42.9105 386.867C52.129 385.642 60.3783 379.901 69 377.224C80.2706 373.724 91.5004 373.135 103 371L103 369C88.3199 345.066 92.6343 311.828 85 286L86 285C98.3571 296.015 115.843 294.613 130.985 292.174C137.597 291.108 141.748 293.806 146.186 286.981C151.974 278.08 155.152 249.966 166.961 248.903C173.235 248.338 175.835 254.321 178.258 259C183.016 268.184 188.183 277.708 196.286 284.356C210.258 295.818 233.169 295.41 250 292.586C256.639 291.473 264.236 289.816 269.097 284.701C276.391 277.025 280.666 257.243 282 247L284 247C286.982 248.405 290.242 251.85 293 249L295 249C295.65 250.3 295.147 250 297 250L297 252C295.365 252.545 295.545 252.365 295 254L296 255L298 255L299 256L299 258C300.853 262.39 306.027 267.582 306.665 272.04C307.167 275.55 304.89 278.781 304.455 282.17C303.573 289.049 304.249 296.089 304 303L306 303L306 300L308 300C311.003 301.783 313.56 303.317 317 304L317 302L315 302L316 301L318 301C318.002 304.486 318.01 307.65 319 311L321 311C332.58 315.837 330.637 321.636 330.043 332C329.582 340.042 327.409 350.102 317 346L316 347L313 361L315 361L316 360L316 362L318 362L318 359C325.906 353.374 333.249 353.698 334 342L337 342C341.304 337.212 340.05 330.016 347 328L347 325C351.133 319.662 353.062 312.677 352 306L354 306L358 301L360 301L360 304L361 305L363 305L363 307C361.427 308.949 360.709 310.588 360 313L358 313L358 311C358.519 308.663 358.48 307.36 358 305L356 305L356 307L356 316L354 316C352.297 319.6 350.699 323.069 350 327L352 326C356.48 320.363 361.201 314.677 364 308L365 309L367 309L368 307C369.749 303.735 373.047 301.577 374.297 297.985C379.576 282.815 373.44 258.988 361 249L363 248L363 246L361 246C360.236 242.533 359.65 239.556 360 236L358 236L356 229L358 229L359 232L361 232L361 230C357.4 224.723 341.296 206.582 351 203L351 201C348.089 195.913 355.018 197.53 358 198L358 196C355.02 194.365 352.358 193.556 350 191L349 192C346.553 190.164 345.299 188.763 344 186L346 186L350 187L350 185C335.443 179.417 338.661 169.947 330.977 158.633C325.047 149.904 317.551 144.407 313 134L315 134L322 134L322 132L322 129L320 129L317 131L317 129C297.384 126.287 296.371 100.202 280 93L282 92L282 90L279 90C263.151 78.9213 238.453 79.4905 220 76.8302C211.405 75.5912 202.906 73.051 194.09 74.1288C184.047 75.3565 174.359 80.6387 164 81.5926C160.498 81.9151 158.307 78.9099 155 78.4421C145.335 77.0749 126.764 82.1978 123 92z"/>
<path style="fill:#111214; stroke:none;" d="M10 83L9 84C8.89671 121.435 3.64799 159.639 1.08951 197C-1.22652 230.82 0 265.073 0 299L1 298C1 248.649 1.49779 199.093 6.16975 150C7.74245 133.474 9.83987 116.603 10 100C10.0531 94.4944 12.176 88.1875 10 83z"/>
<path style="fill:#4c4046; stroke:none;" d="M141 90L140 91L134 93L134 91L132 91L132 94C123.049 104.291 120.31 113.959 123 127L121 127L120 118L118 118L117 138L115 138L112 141C112.65 142.3 112.147 142 114 142L109 152L110 153L111 152C127.117 126.801 146.572 135.122 172 134.999C179.719 134.962 193.817 127.421 197 138L199 138C206.413 140.088 209.524 145.011 218 143L218 145C227.974 145.663 231.081 153.45 238 159L239 158L239 156C236.064 153.383 234.24 150.737 233 147L235 147C240.268 154.272 250.616 164.652 250 174L248 174L248 171L247 170L245 170L240 166L239 167L239 169L240 170L242 170C243.345 173.235 243.417 176.538 244 180L242 180C240.368 184.842 241.414 188.356 237 192L237 190L236 189L234 189L234 191C236.251 194.705 236.952 197.689 237 202L239 202C239.061 205.7 232.176 212.495 229.047 207.663C225.178 201.687 237.435 196.085 226 193L226 195C226.307 197.123 226.382 197.686 228 199L228 201L225 201L224 202L224 204C224.822 206.649 224.901 209.178 227 211L227 213C225.147 213 225.65 212.7 225 214L214 213L214 215C210.65 215.99 207.486 215.998 204 216C204.65 217.3 204.147 217 206 217L206 219L205 220L202 220L202 222L204 222C217.504 213.037 237.552 215.132 253 218L254 216L254 213L256 213C257.757 214.733 258.642 215.341 261 216L261 214L262 206L264 206L267 214L269 214C270.809 210.746 274.527 206.286 273.432 202.326C271.79 196.385 261.538 192.047 257.13 188.215C253.499 185.059 251.115 179.277 249 175L251 175L253 175L253 178C257.735 185.493 263.063 189.638 269 196L271 196L272 195L272 193L270 193C268.587 190.525 267.475 189.413 265 188L265 186L267 186L270 191L272 191L272 189C266.304 180.567 257.638 174.599 251.385 166.576C242.772 155.525 238.339 142.075 224 136L224 134L225 133L226 134L228 134L228 132C217.562 120.234 195.916 108.133 180 108L181 110C186.202 114.492 198.291 117.877 205 120L205 122C203.7 122.65 204 122.147 204 124L206 124C207.896 126.181 209.259 127.069 212 128L212 130L210 130C204.982 126.974 198.483 127.185 193 125L192 126L194 129L193 130C191.086 128.539 190.452 127.989 189 130L187 130L187 128L185 128L180 133L178 133L175 130L173 130C165.816 132.104 160.805 128.666 154 127.302C146.712 125.841 138.479 126.945 131 126L131 128L126 132L125 131L125 128L126 129L128 129L128 127C126.264 123.642 128.034 119.65 128.765 116C131.962 100.023 145.39 89.5857 162 90L162 88C157.578 87.4807 154.293 87.8761 150 89L151 88L157 85L157 83L155 83L142 89L142 87L147 84L146 83L144 83C140.829 84.9476 140.177 86.3681 141 90z"/>
<path style="fill:#000000; stroke:none;" d="M87 102L87 104L88 105L90 105C92.8438 104.371 93.4552 104.513 95 107L96 106C96.5451 104.365 96.3648 104.545 98 104L97 103L96 102C92.7681 101.427 90.2161 101.3 87 102z"/>
<path style="fill:#6d777a; stroke:none;" d="M173 103L174 104C183.972 104.034 192.26 110.024 202 111C196.527 101.616 182.448 100.346 173 103z"/>
<path style="fill:#000000; stroke:none;" d="M84 105L84 107C77.1916 114.34 71.4556 131.053 71 141L73 141L76 137C75.3501 135.7 75.8532 136 74 136C79.552 126.64 81.8814 115.728 87 106L86 105L84 105z"/>
<path style="fill:#090a0b; stroke:none;" d="M92 113L92 115L92 118L94 118C95.8865 115.239 95.0653 114.018 92 113z"/>
<path style="fill:#8d9198; stroke:none;" d="M45 118L45 120C40.2476 123.384 41.8755 128.064 43 133L41 133C38.1025 129.559 35.3838 129.051 31 129L31 131L38 131L37 132L34 133L35 134C37.7449 135.669 38.4966 136.824 39 140L40 139L43 135L44 136L44 143L42 143L37 153L35 153L34 152L34 150C39.7049 146.704 40.0813 135.588 32 136L32 138L33 140L34 139L36 139L37 145L35 145L34 141L32 141L32 144L30 144L30 142C29.4235 138.526 28.4745 137.577 25 137L25 140C24.5206 141.498 24.5999 141.35 25 143L24 144L22 144L22 142C18.3037 140.907 16.1693 143.408 13 145L14 146L15 147L18 145L19 146L19 148L16 148L16 150L17 162L19 162L19 152L20 153C20.1819 161.538 24.8782 161.091 27.7886 167.278C29.2475 170.379 27.1927 176.55 27 180L26 179L20 179L19 180L20 181L20 188L18 187C17.4549 185.365 17.6352 185.545 16 185L15 186L15 188L17 188L17 190L15 190L11 190L11 188L11 183L13 183C14.5218 179.651 14.6188 176.975 18 175L18 173C15.8705 170.998 15.0971 169.929 15 167L13 167L13 164L11 164L10 165L12 169C0.78217 170.291 4.51656 199.15 3.91049 208C1.04782 249.803 0 291.894 0 334L2 334C30.5221 327.461 56.3891 311.777 85 305L85 303L84 296L82 296C80.0864 297.606 79.1631 298.783 78 301L76 301L76 299L79 295L78 294L77 295L76 294L77 293L80 284L83 284L84 283L83 282C80.9248 268.206 70.3617 256.875 67 244L69 244L74 244L73 243C66.2892 242.059 64.6953 236.311 71 233L70 234L70 236L72 237L75 237L75 239L70 239L71 240C72.9486 240.936 73.5502 241.392 75 243L76 242C81.2338 238.522 88.6353 235.333 92 230L91 229C85.0531 229.272 79.6941 231.478 74 233L74 231L77 231L77 229C76.8772 223.081 75.6605 217.3 73 212L72 213L72 215L71 216C70.9937 207.79 67.0301 201.05 66.1289 193C65.4672 187.09 67.495 181.785 67.9097 176C68.275 170.906 66.1311 165.901 70 162L70 160L66 159L65 161L65 167L63 167C51.8048 188.02 63.6633 211.615 71 231L69 231C66.003 222.764 61.3513 215.691 59.3356 207C52.4846 177.461 62.3663 148.755 89 134L89 132L87 132L84 135L83 134L83 132L85 129L84 128C78.9866 129.215 76.0805 131.205 74 136L76 136L75 138L73 141L71 141L71 139C72.6268 132.135 75.8468 126.191 76 119L74 119C69.7236 129.077 65.9118 143.275 64 154L62 154L59 148L61 148L65 148L65 146L65 143L62 143L61 142L61 140L62 139L64 139L65 141L67 141L69 130L64 130L64 128L64 126L66 126L67 125L65 125C62.613 123.337 61.0294 122.679 59 125L53 122L52 123L53 124L53 126L52 127L50 127L50 125L45 124L45 122C45.7102 120.241 45.7102 119.76 45 118z"/>
<path style="fill:#090a0b; stroke:none;" d="M89 120L89 123L87 126L88 127L89 126L92 124L92 122L91 120L89 120z"/>
<path style="fill:#aea3ad; stroke:none;" d="M93 221L94 220C94 205.786 98.7882 192.168 104.13 179C106.444 173.295 111.011 169.206 112 163L115 163C120.466 158.89 122.968 157.005 130 157L130 154L131 153L133 153L133 155C138.613 156.638 144.967 151.175 151 151L151 153C147.568 153.743 144.933 155.075 142 157L143 158L145 158C148.295 156.933 151.819 155.518 155 157L161 155L161 157C166.58 160.313 170.535 160.557 170 168L172 168L176 168L176 171C176.65 172.3 176.147 172 178 172L177 173C174.157 172.579 172.988 172.061 171 170L170 171L171 179L173 179L173 176L174 175L175 176L175 179L178 179L179 180L178 181L205 181L205 179C204.136 174.93 201.278 172.405 199 169L200 168C201.966 169.512 203.63 170.241 206 171L206 173L205 174L206 175L208 174C209.238 167.407 205.844 161.225 199 161L199 159C200.422 157.212 200.697 156.294 201 154L198 154C192.509 151.669 188.624 152.355 189 145L187 144L178 144L178 141L177 140L175 140C163.936 140.394 152.929 134.448 142 136L142 134C131.892 128.034 118.839 139.956 113.385 147.421C97.6938 168.898 93 194.938 93 221z"/>
<path style="fill:#76636c; stroke:none;" d="M139 132L140 133L142 136L144 136C155.537 135.633 166.294 141.361 178 140L178 143L179 144L180 143C183.074 144.082 185.753 144.717 189 145L189 147C187.993 153.898 195.846 153.349 201 154L201 156L199 160L200 161C206.465 162.031 208.838 169.181 207 175L206 174L205 173C206.3 172.35 206 172.853 206 171L205 170C203.048 169.489 202.543 169.267 201 168L199 168L199 170C201.709 173.797 204.46 176.18 205 181L203 181L172 182L172 184L174 188L176 188L178 188L178 186C177.014 184.522 177 184.797 177 183L179 183C181.838 183.413 184.369 185.331 187.13 185.558C194.258 186.144 201.934 181.491 199 194L197 194L197 191L196 190L195 191C194.355 193.926 193.439 196.029 194 199L196 199L196 197C201.927 195.269 211.685 199.168 210.012 207.049C208.986 211.884 201.264 215.829 197 217L197 219L198 220L199 219C204.329 218.176 208.343 216.004 214 216L214 214L227 213L227 211C224.781 208.086 224.667 204.576 224 201L227 201L228 200C226.661 197.606 226.179 195.738 226 193L228 193C234.352 198.845 225.674 201.47 228.608 207.681C231.468 213.734 239.359 205.74 240 202L238 202C236.717 197.709 236.387 193.929 234 190L235 189L237 192L239 192C241.367 187.89 241.767 184.654 241 180L243 180C244.517 175.494 244.203 170.871 239 170L239 168L239 166L241 166C243.174 168.295 244.922 169.273 248 170L248 173L249 174L250 173C251.318 165.98 239.69 149.082 233 147L233 149L239 158L238 159C231.417 151.504 225.385 148.712 218 143L216 143C208.553 144.985 204.25 138.236 197 138L197 135C190.366 129.231 183.422 134.074 176 134.829C163.354 136.116 151.441 132.974 139 132z"/>
<path style="fill:#515257; stroke:none;" d="M80 137L81 138L85 138L84 139C79.5771 141.73 77.9339 145.294 76 150L75 148L73 148L72 150L72 157L70 157L69 156L69 158L67 158L67 156C68.5125 154.347 69.1808 153.106 70 151L69 150L68 151C65.8049 153.707 65.7485 155.564 66 159L69 159L70 160L70 162C64.6716 165.467 70.1302 170.098 70.2554 175.004C70.3683 179.429 68.1445 183.538 68.0154 188C67.8263 194.536 69.8623 200.537 70 207L73 207C75.1362 214.142 76.8453 222.543 77 230L79 230L81 227L82 228L90 227L90 225C88.4086 215.001 88.2812 200.648 94 192C93.3501 190.7 93.8532 191 92 191C93.5193 186.734 93.338 183.444 93 179L91 180C84.2532 190.206 85.1082 202.686 82 214L80 214L80 211C81.8148 199.465 77.7366 188.184 80 176L81 177L80 196L82 196C82.0226 187.814 84.9519 180.106 84 172L86 172L86 174L88 174L88 172C92.0671 167.36 96.5746 162.321 97 156L95 156C90.9312 158.77 86.8621 160.869 86 166L83 166C80.9616 169.267 78.9616 172.26 78 176L76 176L75 175L75 177C73.0954 179.74 72.6351 182.737 72 186L71 185C71.7511 176.451 76.4088 168.067 81 161L82 162L79 166L80 167L81 166C85.1239 161.465 87.2578 156.394 90 151L89 150L86 152L85 151L86 150C91.1214 146.961 107.993 133.326 91.9961 133.283C87.7396 133.272 84.2036 136.389 80 137z"/>
<path style="fill:#0c0d0e; stroke:none;" d="M67 151L68 152L69 150L70 151L69 152L67 157L68 158C69.2997 157.35 69 157.853 69 156L70 157L72 157L72 155L73 148L75 148L75 150L76 149C79.1119 145.168 80.5555 141.639 85 139L84 138L82 138C76.7415 140.601 70.2091 146.078 67 151z"/>
<path style="fill:#c8c0d3; stroke:none;" d="M133 156L133 154L132 153L131 154L130 157L128 157C120.91 157.025 118.285 161.226 112 163L112 166C98.0099 182.493 95.0119 206.513 92 227L94 227C101.425 219.908 104.851 220 115 220L115 222L114 223L116 223C120.017 220.286 123.229 220.004 128 220L128 223L129 224L131 224C136.176 226.78 143.147 229.192 149 230L149 228C149.277 221.546 149.253 214.367 150.213 208C150.635 205.205 153.402 201.27 152.292 198.473C150.2 193.206 136.763 201.024 140 190L139 189L138 190L135 190L135 188L143 186L142 185L136 184L136 182L146 178L146 180L145 184L147 184C157.39 181.526 169.181 184.906 179 180L178 179L176 179L175 178L175 176L174 175L173 176L173 179L171 179L170 170L171 171C173.308 172.759 175.092 172.917 178 173C177.35 171.7 177.853 172 176 172L176 168L174 168L170 168L170 166C171.132 160.049 166.125 158.629 161 158L161 156L160 155L159 156L155 157L155 155L142 158L143 156L151 153L151 151L149 151C143.201 151.373 138.554 154.612 133 156z"/>
<path style="fill:#0f1010; stroke:none;" d="M65 155L64 156C55.3456 183.01 55.6367 205.602 69 231L71 231L71 229C58.9004 207.18 60.0998 190.878 62 167L64 167C65.6227 163.385 66.5197 158.726 65 155z"/>
<path style="fill:#0d0e0f; stroke:none;" d="M76 158L75 159L73 168L74 167C75.9779 164.552 76.9839 161.977 78 159C77.3501 157.7 77.8532 158 76 158z"/>
<path style="fill:#0a0a0b; stroke:none;" d="M68 169L68 171C67.8919 184.056 66.5192 193.879 69 207L70 206C69.8767 200.211 67.874 194.819 68.0162 189C68.1875 181.989 70.5477 176.192 70 169L68 169z"/>
<path style="fill:#ad9bad; stroke:none;" d="M136 181L136 183C138.314 184.591 140.19 184.858 143 185L142 186L135 188L135 190L137 190L140 189L140 191C134.571 199.773 151.374 194.703 153.056 200.123C155.492 207.969 152 222.391 152 231L154 231C163.473 231.407 173.144 234.895 181.687 228.736C186.089 225.562 188.243 219.46 193 216L194 217L194 219L196 219C200.281 216.428 207.515 213.482 209.842 208.826C214.353 199.8 202.26 196.005 196 196L196 198L195 199L194 198L195 190L197 190L197 194L199 194C202.752 181.275 194.278 185.773 187.13 185.157C183.641 184.856 180.749 183.044 177 183L177 185L178 188L176 188L174 188L174 186C173.16 184.084 173.015 183.777 174 182L173 181L171 181C163.157 184.774 153.484 182.425 145 184L145 182L146 178L136 181z"/>
<path style="fill:#000000; stroke:none;" d="M76 179L75 180C74.7065 189.265 70.6878 196.288 73 206L75 206L75 204C74.1276 196.189 78.8115 186.203 76 179M245 180L245 182L247 186L248 185L249 184L249 180L247 180L245 180z"/>
<path style="fill:#483e46; stroke:none;" d="M200 202L200 204L202 208L204 208L204 206L202 202L200 202z"/>
<path style="fill:#0a0a0a; stroke:none;" d="M71 207L71 209L71 216L72 215L72 212L74 214L75 213L75 211L73 207L71 207z"/>
<path style="fill:#000000; stroke:none;" d="M75 207L75 209C75.9761 212.648 77.0245 215.764 79 219L81 219L81 217L75 207z"/>
<path style="fill:#5b4f63; stroke:none;" d="M184 228C189.352 226.42 193.443 224.126 196 219L194 219C194 217.203 193.986 217.479 193 216C188.017 218.414 184.429 222.375 184 228z"/>
<path style="fill:#101011; stroke:none;" d="M72 218L72 220L73 229L75 229L74 218L72 218z"/>
<path style="fill:#090809; stroke:none;" d="M173 218L172 219L173 225L175 225L177 228L179 228L179 226C176.874 223.348 175.661 221.333 175 218L173 218z"/>
<path style="fill:#5a6887; stroke:none;" d="M96 225L97 226L99 226C106.219 223.806 112.655 224.685 120 225L120 223L119 222L120 221L128 223L128 221C122.81 218.822 118.786 220.968 114 223L115 222L115 220L113 220C105.749 219.98 100.296 217.954 96 225z"/>
<path style="fill:#3c4c66; stroke:none;" d="M213 290L212 289C194.102 276.974 170.124 254.111 191 233L190 232L188 232L179 235L179 233C187.488 232.26 195.552 228.681 204 227.427C214.788 225.827 226.507 226.498 237 224L237 222L235 222C220.473 222 206.004 223.731 192 227.71C188.249 228.776 180.537 229.496 178.028 232.728C173.655 238.361 176.999 251.696 179.965 257C187.919 271.225 194.876 287.283 213 290z"/>
<path style="fill:#d2eaf2; stroke:none;" d="M91 229L92 230C98.721 229.996 105.392 229.228 112 228L112 226L110 226L91 229z"/>
<path style="fill:#9eb7d2; stroke:none;" d="M124 227L124 229L134 230L133 229C129.997 227.874 127.197 227.261 124 227z"/>
<path style="fill:#6d5c64; stroke:none;" d="M220 227L221 228L230 228L229 229L233 232L235 232L237 231L237 233L237 241L234 241L233 242L246 246L246 248L244 248C239.491 247.032 231.223 252.996 225 253L226 254L233 254L232 255L232 262L231 261L229 261L229 263L227 274L228 273L230 273L230 275C228.309 277.663 226.667 279.309 224 281L223 280L225 279L224 278L222 278L219 280L217 279C217 277.203 216.986 277.479 216 276L214 276L214 278L214 283L212 283C201.293 278.717 195.819 270.507 190 261L191 260L192 261C193.969 265.632 199.536 271.576 202 264L200 264C198.833 260.6 198.922 257.572 199 254L201 254L202 253L202 251L200 251L198 252L198 250L198 246L201 246L202 245L202 243L201 242L200 243L200 245L198 245C196.02 241.444 195.561 238.017 196 234L195 233C176.892 242.4 186.766 266.681 198.171 277.816C212.416 291.724 237.96 293.806 256 287L256 289C274.459 285.657 280.249 248.725 268.671 236.108C257.108 223.508 235.222 227 220 227z"/>
<path style="fill:#888cad; stroke:none;" d="M200 245L200 243L201 242L202 243L202 245L201 246L199 246L198 247L198 252L200 252L202 251L202 253C200.521 253.986 200.797 254 199 254C198.74 258.072 197.229 262.603 202 264L202 266L198 268L198 270L198 272L200 272L204 272L204 274C202.765 279.462 209.424 282.655 214 283L214 281L214 276L216 276L218 280L225 278L223 279L223 281L225 281C228.117 278.788 229.48 276.806 230 273L228 273L227 274L227 272C228.178 268.282 228.917 264.908 229 261L231 261L232 262L233 260L233 255L232 254C223.171 253.792 219.188 249.785 219 241C216.398 242.392 214.983 243.215 214 246L211 246L207 250L208 251L217 252L217 254L216 255L214 255C210.832 252.775 207.715 253.396 204 254L204 252L203 248L205 248C207.608 245.811 209.974 243.542 213 242L213 240L211 240L210 241L209 240L210 239C218.737 236.423 228.044 240.975 237 241L237 239L237 231L235 231L233 232L233 230L229 230L230 229C222.17 225.714 205.631 227.688 198.229 231.804C193.102 234.656 195.389 243.147 200 245z"/>
<path style="fill:#546c89; stroke:none;" d="M133 230L134 231C141.79 232.634 149.282 236.011 152 244L154 244L154 242L155 232L153 232C146.314 231.861 139.507 228.36 133 230z"/>
<path style="fill:#b8bfde; stroke:none;" d="M84 244C85.6351 243.455 85.455 243.635 86 242L87 243L86 244C86.5409 259.657 78.7397 276.876 97 286.427C100.652 288.338 105.047 288.059 109 289L108 290L104 290L104 292C111.678 292 123.592 293.871 130.29 289.387C136.228 285.413 142.194 281.281 145.818 274.961C147.951 271.24 149.582 267.113 150.791 263C158.733 235.983 131.882 230.125 111 231.039C101.891 231.438 84.8675 232.589 84 244z"/>
<path style="fill:#020203; stroke:none;" d="M66 241L68 241L75 239L75 237L70 236L70 234L71 233L69 233C66.649 235.506 66.1844 237.588 66 241z"/>
<path style="fill:#0f141a; stroke:none;" d="M79 233L79 235L80 236L84 234L83 233L81 233L79 233z"/>
<path style="fill:#4e5e76; stroke:none;" d="M92 237L92 239L93 240L95 240L97 239L97 241L96 243L97 244L98 243L98 237C106.762 236.308 115.255 234.377 124 236L125 234L124 233C112.722 233 102.999 235.382 92 237z"/>
<path style="fill:#767399; stroke:none;" d="M156 233L156 235L157 250L159 250L161 248C160.35 246.7 160.853 247 159 247L160 243L162 243L162 246L163 247L168 247L168 245L168 234L166 234L165 235L166 236L166 240L164 240L163 234L161 234L160 240L158 240L158 238L159 233L156 233z"/>
<path style="fill:#a9bbca; stroke:none;" d="M271 234L271 236C273.571 236.563 275.393 236.436 278 236L278 234L277 233L271 234z"/>
<path style="fill:#555d70; stroke:none;" d="M129 234L129 236L133 237L133 235L129 234z"/>
<path style="fill:#3c3236; stroke:none;" d="M260 234L260 236L262 245L264 245L268 245L268 247L264 248L264 250L269 252L269 254L267 254L252 251L252 249L251 248L249 248L249 251L246 251C240.716 256.754 232.095 261.961 232 270C234.723 269.314 237.166 269.136 239 267L241 267C246.318 272.631 247.131 278.536 238 280L238 282L246 281L246 283C250.972 281.086 256.238 273.577 261 278L263 278L264 277L264 275L262 275L262 273L263 272L265 272L265 270L264 267L266 267L267 260L270 260C272.756 250.677 270.559 236.966 260 234z"/>
<path style="fill:#425663; stroke:none;" d="M274 237L275 238C278.175 238.524 280.825 238.524 284 238L284 236C279.857 234.33 277.855 234.918 274 237z"/>
<path style="fill:#4d566a; stroke:none;" d="M136 238L135 239L135 241L133 241L129 239L128 240L129 241C136.183 243.59 142.705 246.327 148 252L150 252L150 250L136 238z"/>
<path style="fill:#333b4d; stroke:none;" d="M209 239L209 241L211 241L212 240L213 241L212 242L203 248L203 250C203.857 251.707 203.982 252.109 204 254L206 254C209.828 253.746 213.241 254.382 217 255L217 253C213.818 251.308 210.575 251.074 207 251L208 249C210.041 247.457 211.525 246.613 214 246L214 244L218 241L219 242L220 251C221.3 250.35 221 250.853 221 249C224.412 250.446 227.304 250.959 231 251L231 249L230 248L229 249L227 249L227 247L227 242L225 242L218 240L220 239L219 238C215.514 238.002 212.35 238.01 209 239z"/>
<path style="fill:#090c10; stroke:none;" d="M111 247L113 247C115.106 246.181 116.347 245.513 118 244L119 245C119.331 259.063 128.588 258.645 139 254L139 252L138 251L136 251C127.405 256.322 129.084 250.336 122 248L122 246L128 245L128 248L129 249L131 249L132 245L131 244C127.893 242.922 126.517 241.918 125 239L123 239C117.697 240.49 110.743 240.155 111 247z"/>
<path style="fill:#0e0f12; stroke:none;" d="M218 239L219 240C221.649 241.858 223.786 241.965 227 242L227 244L227 249L229 249L230 248L231 249L231 251L229 251L222 249L221 250L221 252C231.322 254.458 236.169 248.362 245 248L246 247L245 246C237.096 241.697 226.988 239.074 218 239z"/>
<path style="fill:#f6fdfc; stroke:none;" d="M68 241L68 243L70 243L75 243L75 241C72.2545 240.236 70.7455 240.236 68 241z"/>
<path style="fill:#68769a; stroke:none;" d="M83 240L83 242C75.4387 250.764 80.8979 259.728 83 269L84 268C84.0054 259.873 85.4487 250.923 87 243L86 242L85 244L84 243L84 241L83 240z"/>
<path style="fill:#576177; stroke:none;" d="M93 242L92 243L90 249L92 249L93 251L95 251L96 250C95.7032 246.708 95.1777 244.501 93 242z"/>
<path style="fill:#6b6f92; stroke:none;" d="M76 243L76 245L71 247L71 249L75 255L77 255L78 243L76 243z"/>
<path style="fill:#404d5f; stroke:none;" d="M109 243L109 245C103.56 248.21 101.628 250.151 99 256L100 257C102.521 254.927 103.929 253.087 105 250L106 251L114 249L114 247C112.069 246.228 111.252 245.99 111 244C110.35 242.7 110.853 243 109 243z"/>
<path style="fill:#58698a; stroke:none;" d="M122 246L122 248C124.697 249.472 125.653 253.134 128.299 254.2C131.448 255.468 135.923 251.809 139 251L139 249C135.851 246.951 133.359 245.48 131 249L129 249L128 245L122 246z"/>
<path style="fill:#343537; stroke:none;" d="M282 247L282 250C278.239 255.525 277.055 261.385 277 268L278 267C278.737 269.903 278.529 272.049 278 275L279 276C281.072 279.552 275.342 282.594 275 287L272 287C269.948 288.965 268.806 289.574 266 290L266 293C264.7 293.65 265 293.147 265 295L267 295C274.514 291.638 285 286.64 290 296L288 296L284 296C283.697 298.294 283.422 299.211 282 301L282 303L285 303L286 305L287 304L287 302L286 300L293 299C290.991 303.499 288.703 307.714 285 311L285 313L287 316L285 316C283.015 318.747 282.241 320.622 282 324L280 324L280 322C280.9 318.959 280.992 316.169 281 313L280 314C278.091 318.377 276.951 322.029 274 326L273 325L273 323C269.266 320.702 267.399 323.243 264 325L264 327L264 331L266 331C268.635 339.595 268.649 345.93 272 354L270 354C271.114 359.087 272.467 361.617 278 361L278 363L275 365L276 366L278 366L278 368L277 376L276 375L274 375L272 385L271 384L271 382L270 380L268 380C266.74 388.835 259.572 397.978 264 407L263 408L262 407C262.482 413.115 263.164 422.489 254 419L253 420L254 421C254.831 427.956 253.956 428.831 247 428L247 426L250 417L248 417L245 417L245 419L246 422L245 423L243 423L239 422L239 424L233 425L233 427C237.228 432.677 225.172 441.928 225 450L227 450C229.902 450.182 232.257 451.041 235 452L236 451L236 449L234 449L235 448L239 448L239 445L243 444L243 446L244 447L246 447L246 445L245 444L247 444L254 444L254 441L259 439C259.385 443.882 258.357 454.015 265 453L265 455C267.086 456.867 268.246 457.566 271 458L271 460C267.171 460.304 265.827 461.205 265 465L267 465C269.549 464.429 271.395 464.63 274 465L274 463C272.996 460.545 273.784 459.428 275 457L278 459L279 458L278 457L278 455L279 454L291 453L291 455L285.816 462.299L272 492L273 493L274 492C289.942 474.282 304.414 438.879 306 415L307 416L307 422L309 422C313.255 417.979 317.173 411.122 320 406L322 406L322 408L322 411L319 411L318 412L318 414L319 415L321 415C322.622 412.962 324.163 411.46 325 409L327 409L331 419L333 419C334.081 415.343 334 411.801 334 408L336 408C337.373 414.058 341.105 419.156 343.104 425C347.526 437.929 350.413 452.321 351 466L349 466L348 465C348 475.67 350.029 488.753 347 499L348 500L359 500C357.411 493.654 356.022 486.532 356 480L357 481L358 488L360 488L357 473L359 473L360 475L361 474L361 472L357 470L357 468C358.661 464.041 358 459.263 358 455L356 455C354.28 449.561 355.169 443.561 353.454 438.285C349.92 427.408 345.584 421.691 347 410L349 410L354 416L356 416L356 414C354.13 411.376 352.738 409.141 352 406L350 406L349 407L348 406L349 405C348.35 403.7 348.853 404 347 404C344.514 399.186 338.298 396.213 334 393L335 392L337 392C341.728 394.397 347.692 397.619 349 403L351 404L359 407L360 406L359 405L360 404L362 404L363 405L362 406L362 414L363 413L365 408L366 410L375 412L375 410L375 335L374 336C370.528 335.173 366.292 335.583 363.09 334.012C358.642 331.828 356.504 326.563 351 327L350 326L350 324L356 316L356 314L356 305L358 305L358 313L360 313L363 305L361 305L360 301L358 301C356.158 303.08 354.35 304.509 352 306L352 308C352.362 315.379 348.215 320.965 347 328L344 328C339.445 332.443 341.006 339.894 334 342C333.5 346.012 332.159 350.798 328.777 353.397C324.265 356.866 319.122 355.07 318 362L316 362L316 360L315 361L313 361L313 359C314.587 354.792 315.633 350.487 316 346L318 346C321.81 348.826 326.422 347.144 328.682 342.906C333.578 333.724 334.502 309.663 319 311L318 310L318 301L316 301L315 302L317 302L317 304L315 304C312.013 301.948 309.601 300.523 306 300L306 302L305 303L304 302L304 300C305.032 293.9 303.767 287.519 304.985 281.285C305.636 277.959 307.911 274.573 306.992 271.093C305.482 265.376 300.363 261.349 299 255L296 255L295 254L297 250L295 249L293 249L293 251C289.097 249.692 286.202 247.318 282 247z"/>
<path style="fill:#7f6973; stroke:none;" d="M162 249C162.65 250.3 162.147 250 164 250L163 259L166 257L167 258L167 260C164.783 261.163 163.606 262.086 162 264L163 265L165 265L168 271L166 271L165 270L164 272C164.16 274.506 164.249 275.871 163 278L163 280C164.32 284.439 162.016 289.246 162 294L164 294L165 294L166 293L166 288L168 288L169 295L167 295L162 298L162 300L166 301L166 303C164.363 308.532 169.26 313.157 163 317L163 319L164 325L163 326C158.478 325.262 156.283 326.579 155 331L157 331C159.129 329.751 160.494 329.84 163 330L163 332L161 332L162 333L164 333L165 338L166 337L166 334L168 334L170 335L171 334L170 333L168 332L169 330L177 325L177 323C175.578 321.212 175.303 320.294 175 318L178 318C189.475 307.196 169.38 299.889 175 289L175 287L172 287L171 286C171.42 276.207 172.879 264.629 171 255L172 254L172 256L175 256L175 254C172.971 247.487 167.606 248.763 162 249z"/>
<path style="fill:#52576b; stroke:none;" d="M141 250L141 252L143 258L145 258L147 258L147 256L145 256L145 254C146.3 253.35 146 253.853 146 252L145 251L141 250z"/>
<path style="fill:#b9b4c2; stroke:none;" d="M86 285L85 286L86 287C86 314.546 93.221 345.328 103 371L101 371L100 372L101 373C105.267 377.497 110.066 389.55 102 392L103 393L110 393L109 395C103.613 400.967 102.638 409.36 101.41 417C98.4827 435.228 99.9875 452.037 100.782 470.039C101.209 479.737 97.79 490.276 97 500L99 500L103 500L103 497C108.499 486.712 104.586 474.244 106 463L108 463L108 468L110 468C112.282 473.303 114.181 479.192 114 485L116 485L116 487C112.599 490.095 116.092 496.075 117 500L119 500L120 499L120 497L116 489L117 488L118 489C120.2 494.593 121.291 499.489 128 500L128 498C110.621 468.117 107.696 435.331 112 402L114 402L114 404C104.104 433.232 116.088 468.259 128 495L129 494C131.295 485.729 120.685 475.939 121 467L119 467C118.267 458.029 116.821 443.675 112 436L113 435C114.767 436.627 115.727 437.331 118 438L118 440C114.586 453.515 123.818 477.57 131 489L133 489C136.059 484.632 134.773 479.735 133 475L134 474L135 475L136 474L136 472L133 472L133 470L134 466L132 466L129 470L128 469L130 465L129 464L128 465L127 464L126 463C127.737 460.215 128.727 459.695 132 460L133 459L133 457L131 457C129.661 454.934 129.365 454.475 127 454L127 452L130 447L132 447L132 449C131.911 452.331 133.228 454.162 135 457L136 456C135.575 446.125 131.207 437.017 131 427L133 427C133.334 443.181 139.813 462.045 148.66 475.575C152.037 480.739 157.08 483.992 160.29 489.019C165.498 497.176 180.428 506.652 188 495L187 494L180 496C179.484 491.496 177.369 489.833 174 487L175 486C177.035 487.788 178.347 488.463 181 489L181 487L178 482L180 482C179.366 478.006 175.041 471.596 172 469L172 467L174 467L175 466L175 464L173 464C169.15 465.773 166.134 465.314 162 465L162 462L161 461L159 461L158 460L159 459C160.942 455.876 160.229 453.359 159 450L157 450L156 451L156 437L158 437L158 439C158.016 443.421 157.849 446.711 162 449L163 447L163 437L165 437C167.595 439.794 170.903 437.209 174 436L173 437L173 440L175 440C176.901 432.135 180.999 427.302 181 419L182 420L184 420L185 419L183 419L182 413L180 414C176.946 412.315 175.081 409.791 173 407L172 408L172 410L171 411L170 410C171.867 404.005 171.051 399.159 171 393L169 393C169.005 400.102 170.282 406.666 162 409L162 407C163.899 403.83 163.449 400.278 164.988 397.005C168.479 389.575 176.141 391 183 391L183 389L183 386L178 386L178 384C179.226 378.692 174.414 377.144 170 377L170 379L169 386L168 385L167 384C166.693 381.877 166.618 381.314 165 380L165 378L167 378L168 377L167 376C170.947 371.574 174.434 367.36 180 365L180 363C178.211 361.578 177.294 361.303 175 361L178 353L179 354C179.545 355.635 179.365 355.455 181 356L179 357L181 361L182 360C182.079 356.602 182.522 354.068 184 351L183 350C178.127 342.151 179.015 331.535 167 336L167 338C167.696 342.221 165.642 345.163 164 349L165 350L166 349L171 343L173 343L173 345L172 348L170 348C169.35 346.7 169.853 347 168 347L168 350C165.337 352.05 163.688 354.091 162 357L161 356L160 355C161.52 351.153 164.608 342.109 157 345L156 344L157 343C159.317 341.617 159.963 340.513 161 338L163 338C163.65 339.3 163.147 339 165 339L165 337C163.513 332.408 159.443 331.657 155 331L155 329C157.8 326.742 159.398 325.871 163 326L164 325L163 324L163 317L165 317C168.418 312.114 165.451 306.577 166 301L163 301L162 300L162 298L165 298C165.481 295.799 165.481 295.201 165 293L164 294L162 294L162 292C162.365 286.611 164.862 283.455 163 278L165 278C164.623 273.485 166.046 267.861 162 265L162 263C164.761 261.287 166.054 260.113 167 257L165 257L164 259L163 258L163 256L164 251L163 250C154.021 254.709 151.794 277.048 146.186 285.999C134.831 304.124 100.497 294.427 86 285z"/>
<path style="fill:#4e505c; stroke:none;" d="M175 253L175 255C173.168 254.969 173.441 255.079 172 254L171 255L171 257C172.082 266.844 171.082 277.117 171 287L174 287L175 288C169.016 297.45 191.807 313.128 175 318L175 320L177 325C181.384 323.121 185.229 320.744 190 320L190 322L169 332L170 333L171 335L172 334C178.204 336.173 182.886 343.445 182 350L184 350C182.224 353.691 182.012 356.939 182 361L180 360L179 357L181 357L180 355L179 353L178 354L177 355L175 360L176 361L178 361L180 365L177 365C173.598 368.085 167.742 372.039 168 377L167 378L165 378L165 380L167 380L168 386L169 385C169.81 382.271 169.979 379.85 170 377L172 377L191 379L191 381L186 383L186 385L188 385C189.479 384.014 189.203 384 191 384L191 387C191.986 388.479 192 388.203 192 390L190 390C179.367 391.305 180.072 396.729 184 405L185 404L186 403L182 394C183.853 394 183.35 394.3 184 393L185 394L185 396L186 397L190 397L190 399C188.695 402.426 187.336 405.294 187 409L189 409C193.428 407.24 197.379 409.73 199 404L201 404L201 406L200 412L202 412L203 411L203 421L202 422C198.939 420.017 195.575 420.513 192 420L192 425L190 425C184.85 434.613 175.807 440.948 175 453L177 453C178.847 449.583 181.399 446.879 184 444L185 445C183.449 446.715 182.756 447.823 182 450C191.535 451.477 187.229 457.497 189 464L190 463L191 457L192 458L194 458L195 456C194.594 453.908 194.783 453.98 193 453L195 452L194 451C189.3 449.62 187.798 445.605 184 443L184 441L186 441L187 439L188 440L188 446L190 446L191 443L193 443L197 444L197 442L199 442L200 443C199.064 444.949 198.608 445.55 197 447L198 448L199 449L200 448L201 447L202 446L202 448C200.927 454.736 201.482 460.791 204 467L202 467L200 467L200 465L200 454L198 454L198 456C197.596 461.003 197.466 465.532 195 470L196 471L197 472C199.903 473.491 202.617 474.771 205 477L207 477L209 476L210 477C210.178 482.871 212.129 484.822 218 485L218 482L222 481L221 482L221 484L223 484C224.924 482.397 226.591 481.753 229 481L229 484C225.956 488.529 217.031 487.416 212 489L212 491L214 491C221.452 489.226 230.362 487.163 238 487L238 489L236 494L237 495L238 494L240 494L240 496C238.519 497.598 237.939 498.108 236 499L237 500C250.967 500 265.044 495.938 272 482L274 482L274 484L272 485L273 486L274 485L277 486L277 484C282.746 477.437 282.788 469.373 286.34 462.299C288.341 458.315 290.833 458.084 291 453L288 453C284.686 452.855 281.172 453.989 278 455L278 457L279 458L278 459L276 457L274 458C272.831 460.306 272.122 461.175 274 463L274 465L272 465C269.269 463.838 268.731 463.838 266 465L265 464L265 462C267.075 460.83 268.637 460.308 271 460L271 458C267.887 457.054 266.713 455.761 265 453L264 454C258.864 451.168 259.673 444.325 259 439L257 439C254.717 440.446 254.418 441.311 254 444L251 444L245 444L246 445L246 447L244 447L243 444L241 444C239.733 445.543 239.511 446.048 239 448L234 448C234.65 449.3 234.147 449 236 449L236 451L235 452C231.432 450.111 229.007 449.62 225 450L225 448C225.958 441.606 238.596 431.89 233 427L233 425L235 425L239 425L239 423L240 422L242 422L246 423L245 417L247 417L250 417L250 419C247.917 421.799 247.304 424.542 247 428L250 428C256.765 432.135 254.518 423.487 253 420L254 419C262.802 425.113 262.645 412.101 262 407L263 408L264 407C260.581 397.085 267.319 389.473 268 380L270 380L271 385L272 384C273.285 380.958 273.85 378.297 274 375L276 375L277 376L278 366L276 366L275 365L276 364L278 364L278 362L277 361L275 361C271.789 359.466 271.056 357.358 270 354L272 354C269.781 346.015 267.257 339.904 267 331L265 331L264 325L266 325C268.989 322.045 271.569 321.582 273 326L275 325C278.468 321.442 278.874 317.662 280 313L281 314L280 324L282 324C282.589 320.177 283.937 318.331 287 316L287 314C286.35 312.7 286.853 313 285 313L285 311L287 311L293 300L292 299L290 299L286 300L286 302C286.986 303.479 287 303.203 287 305L282 303L282 301C283.803 299.46 283.832 298.403 284 296L286 296L290 296L290 294C281.701 286.651 274.239 292.604 265 295L265 293L266 290C269.452 289.741 271.868 288.33 275 287C275.777 282.113 283.349 278.854 278 275L278 273C278.874 270.948 278.953 269.253 279 267L277 268C274.243 272.381 273.55 277.667 270.532 281.981C264.805 290.165 253.389 292.597 244 293L245 295C248.066 297.041 251.381 296.818 255 297L255 300L256 301L258 301L262 307C259.029 307.19 256.74 307.834 254 309L254 311L255 312L256 311L259 311L259 313L255 319L256 320L257 319L258 320C258.01 323.455 258.198 326.632 259 330L258 331C251.882 334.376 255.44 340.609 257 346L256 347L254 346C253.014 344.521 253 344.797 253 343L251 343L250 348L253 348C254.17 350.075 254.692 351.637 255 354L253 354L252 350L250 350C246.92 351.54 244.376 351.23 241 351L241 348C240.35 346.7 240.853 347 239 347L239 345L241 345L241 343L239 343C235.5 345.165 235.92 347.786 234 351L235 353C240.242 359.984 242.976 366.25 243 375L241 375C240.066 367.613 239.311 356.744 231 354L231 352L234 350L233 349C221.248 337.248 208.187 323.579 207.283 306.001C207.085 302.148 209.491 298.76 210 295L212 295L212 300L214 300C219.712 295.529 225.997 300.101 232 302L232 300C236.316 299.412 239.155 296.775 243 295L242 294C223.803 294 204.306 293.55 191.286 278.826C184.466 271.113 181.458 260.794 175 253z"/>
<path style="fill:#34363b; stroke:none;" d="M68 254L68 257C66.3481 259.685 65.4833 261.886 65 265L67 265L70 254L68 254z"/>
<path style="fill:#0f0f11; stroke:none;" d="M71 259L71 262C67.801 265.391 65.7941 269.712 64 274L65 275L66 274C69.26 269.961 73.0424 264.286 71 259z"/>
<path style="fill:#585d70; stroke:none;" d="M93 261L93 263L105 264L106 263L106 260L104 260L93 261z"/>
<path style="fill:#5b586a; stroke:none;" d="M129 260C125.59 261.069 122.556 261.395 119 261L118 262L119 263C123.015 263.159 126.182 263.454 130 262C130 260.147 130.3 260.65 129 260z"/>
<path style="fill:#060609; stroke:none;" d="M190 260L190 262C194.084 268.671 197.981 276.047 205 280L206 279L205 278C204.025 275.689 203.835 274.508 204 272L202 272L198 272L198 269C195.535 266.142 193.471 263.479 192 260L190 260z"/>
<path style="fill:#06070a; stroke:none;" d="M195 260L195 262L196 264L198 264L198 262L197 260L195 260z"/>
<path style="fill:#515062; stroke:none;" d="M142 261L142 263C141.426 266.698 140.345 268.316 137 270L135 278L133 278L133 276L131 276L131 278L129 279L130 280L132 280C133.832 280.031 133.559 279.921 135 281L136 280C140.76 275.404 145.398 267.632 146 261L144 261L142 261z"/>
<path style="fill:#5e5a6d; stroke:none;" d="M120 273L122 273L129 272C128.35 270.7 128.853 271 127 271L127 268L129 268L132 268L131 269L132 270L134 270L137 267L137 265L136 264C130.056 266.66 120.589 265.436 120 273z"/>
<path style="fill:#30272b; stroke:none;" d="M164 265L164 267L166 271L168 271L168 269L166 265L164 265z"/>
<path style="fill:#121116; stroke:none;" d="M127 268L127 270L128 271L130 271L132 269L131 268L129 268L127 268z"/>
<path style="fill:#857e90; stroke:none;" d="M84 279L84 281C87.039 284.227 90.2548 286.644 94 289L95 288L94 287L84 279z"/>
<path style="fill:#000000; stroke:none;" d="M127 284L129 284C132.211 282.938 133.736 282.183 135 279L133 279C129.757 280.048 128.081 280.7 127 284z"/>
<path style="fill:#635d6f; stroke:none;" d="M122 280L122 282L126 282L126 284L124 284L124 286L126 286L133 284L132 283L130 283C128.522 283.986 128.797 284 127 284L127 282L128 281L127 280L122 280z"/>
<path style="fill:#0e0c0e; stroke:none;" d="M223 282L223 284L228 285L228 283L228 281L226 281L223 282z"/>
<path style="fill:#78667a; stroke:none;" d="M138 289L139 290L141 290L146 284L145 283L138 289z"/>
<path style="fill:#211a1d; stroke:none;" d="M166 288L166 290L166 295L168 295C168.888 292.54 168.467 290.585 168 288L166 288z"/>
<path style="fill:#4e3d4a; stroke:none;" d="M119 294L120 295C126.481 297.719 135.654 295.232 142 293L141 292L139 292L119 294z"/>
<path style="fill:#a18b98; stroke:none;" d="M232 302L230 302C225.843 298.637 218.167 295.048 214 300L212 300L212 295L210 295C204.248 319.808 218.523 333.107 234 351L236 351L236 349C236.164 345.287 237.556 344.218 241 343L241 345L239 345L239 347C240.267 348.543 240.489 349.048 241 351C245.228 351.521 247.981 351.423 252 350L252 353L253 354L255 354L255 352C254.013 349.147 252.936 348.627 250 348L250 346L251 343L253 343L253 345L256 347L257 346C255.58 339.206 252.904 335.039 259 330L259 328C258.1 324.959 258.008 322.169 258 319L257 320L255 320L255 318C257.94 315.994 258.723 314.543 259 311L257 311L254 312L254 310C256.709 308.347 258.854 307.408 262 307L262 305C259.853 302.869 257.938 301.73 255 301L255 298L254 297L252 297C249.254 296.126 247.224 295.966 245 294C240.564 295.194 234.762 298.294 232 302z"/>
<path style="fill:#5f6d70; stroke:none;" d="M374 298L374 300C370.553 302.596 368.162 304.766 367 309L365 309L364 308L363 309L352 326L353 327L355 327C360.744 334.247 365.444 334.412 374 336L375 335C375 324.351 378.111 307.798 374 298z"/>
<path style="fill:#000000; stroke:none;" d="M198 302L198 304C198.792 308.605 201.644 313.276 201.471 318C201.173 326.198 190.287 333.339 183 334L183 336C199.108 335.532 217.696 312.282 198 302z"/>
<path style="fill:#605662; stroke:none;" d="M143 319L143 321C144.588 323.849 146.586 325.811 149 328L150 327L150 325C147.816 322.391 146.058 320.483 143 319z"/>
<path style="fill:#010101; stroke:none;" d="M168 331L169 332L171 332L190 322L190 320L188 320C180.588 321.869 173.937 326.305 168 331z"/>
<path style="fill:#080708; stroke:none;" d="M157 329L157 331L163 332L163 330L157 329z"/>
<path style="fill:#040405; stroke:none;" d="M166 334L166 337C164.545 339.351 163.678 341.322 163 344L165 344C168.275 341.871 167.77 338.495 169 335L168 334L166 334z"/>
<path style="fill:#473b3f; stroke:none;" d="M236 335L236 337L237 338L238 337L239 336L238 335L236 335z"/>
<path style="fill:#585968; stroke:none;" d="M143 343L143 345L145 345C148.633 342.749 152.255 341.339 155 338L154 337C150.396 339.299 146.988 341.418 143 343z"/>
<path style="fill:#504f5c; stroke:none;" d="M161 338L160 339C158.846 341.249 158.249 341.846 156 343L156 345C162.559 343.917 161.807 347.879 161 353L163 353C163.545 351.365 163.365 351.545 165 351L164 350L166 344L164 344L163 338L161 338z"/>
<path style="fill:#000000; stroke:none;" d="M179 341L179 343L181 349L183 349L183 347L181 341L179 341z"/>
<path style="fill:#1a1a1f; stroke:none;" d="M176 342L176 344L177 345L178 344L176 342z"/>
<path style="fill:#0f0f12; stroke:none;" d="M171 343L171 345C166.303 346.405 163.802 350.989 160 354L160 356L161 357L163 356C165.15 353.055 167.041 350.528 168 347L170 347C170.65 348.3 170.147 348 172 348L173 347L173 343L171 343z"/>
<path style="fill:#6f4455; stroke:none;" d="M0 349L0 351L0 381L35 382L35 380L29 352L31 352C32.0435 361.677 35.0071 372.339 37 382L39 382C42.0502 381.846 44.25 381.329 47 380L46 379C48.8719 374.223 50.8962 378.912 55.0895 378.424C58.4059 378.037 61.9461 375.346 65 374L65 372C61.0953 371.396 56.1144 365.783 53 369L51 369L51 367C58.3014 360.63 78.1667 366.907 88 364L88 362L86 360L87 359L89 359L90 358C83.703 350.789 76.1389 353.099 68.1698 350.796C60.3488 348.535 53.3667 345.366 45 345.04C37.7543 344.758 31.0844 347.689 24 348.7C15.9337 349.85 8.06492 349.022 0 349z"/>
<path style="fill:#0f1013; stroke:none;" d="M189 345L190 346L194 347L195 346L194 345L189 345z"/>
<path style="fill:#222129; stroke:none;" d="M193 348L193 350C195.276 352.035 197.399 353.339 199 356L200 355C199.805 352.072 198.981 349.745 198 347L193 348z"/>
<path style="fill:#1c1115; stroke:none;" d="M39 348L39 350C42.794 353.582 47.9806 353.366 53 354L53 352C49.054 350.036 44.4994 350.679 41 348L39 348z"/>
<path style="fill:#1a1c21; stroke:none;" d="M175 348L175 350L177 350L177 348L175 348z"/>
<path style="fill:#585d6d; stroke:none;" d="M144 349L143 350L143 353L145 352L146 350C145.35 348.7 145.853 349 144 349z"/>
<path style="fill:#262b34; stroke:none;" d="M204 350L204 352L206 355L205 356L204 354L202 354L202 356C203.906 358.323 205.108 359.194 208 360L208 358C207.72 354.259 206.888 352.403 204 350z"/>
<path style="fill:#040404; stroke:none;" d="M232 350L231 352L231 354L233 354C237.702 361.107 239.469 366.758 241 375L243 375L243 373C242.923 363.697 238.729 357.696 234 350L232 350z"/>
<path style="fill:#1d1e24; stroke:none;" d="M168 355L170 355C170.545 353.365 170.365 353.545 172 353L172 351L170 351C168.733 352.543 168.511 353.048 168 355z"/>
<path style="fill:#4e4b54; stroke:none;" d="M118 352L117 353L117 355L119 355C120.3 354.35 120 354.853 120 353C119.35 351.7 119.853 352 118 352z"/>
<path style="fill:#505563; stroke:none;" d="M130 354L130 356L133 356L133 354L130 354z"/>
<path style="fill:#3f3b46; stroke:none;" d="M151 354L150 356L150 364L149 365L148 364L148 360L147 361L145 366L144 365L144 363L147 358L146 357C141.932 360.234 141.488 362.991 142 368L139 368L136 370L136 372C138.677 373.891 139.784 374.494 143 374L143 372L141 372L141 370L142 369C147.724 368.652 152.251 368.23 158 369L158 367L156 360L154 361L154 365L152 365C151.371 361.281 152.468 357.531 151 354z"/>
<path style="fill:#0b0a0d; stroke:none;" d="M165 355L165 358C162.479 361.193 162.58 363.249 164 367L166 367L166 365L167 355L165 355z"/>
<path style="fill:#505b6f; stroke:none;" d="M138 356L138 359C136.365 359.545 136.545 359.365 136 361L137 362L138 361L140 357C139.35 355.7 139.853 356 138 356z"/>
<path style="fill:#474751; stroke:none;" d="M119 358L118 359L116 365L118 365C118.921 362.45 119.729 360.605 119 358z"/>
<path style="fill:#58606f; stroke:none;" d="M120 366L121 365L126 360L125 359C121.893 360.939 120.586 362.358 120 366z"/>
<path style="fill:#0c0c10; stroke:none;" d="M159 359L158 360L159 366L160 365L161 360L159 359z"/>
<path style="fill:#0f0f12; stroke:none;" d="M169 359L168 360L168 366L170 366L171 365L171 363L169 359z"/>
<path style="fill:#121417; stroke:none;" d="M128 360L128 363L127 364L128 365L129 364L130 360L128 360z"/>
<path style="fill:#151417; stroke:none;" d="M132 360L132 363C126.515 368.805 121.401 364.825 120 375L122 375C126.43 373.969 129.964 371.979 134 370L134 368L132 368L132 366L134 366C136.025 366.207 137.067 365.793 139 365L139 363L137 363L133 364L133 362L135 362L135 360L132 360z"/>
<path style="fill:#070608; stroke:none;" d="M234 362L233 364L235 373L234 374L233 373L230 365L228 365L228 367C230.377 372.571 235.099 375.811 237 381L239 381L239 379C238.035 373.825 235.751 368.173 236 363C235.35 361.7 235.853 362 234 362z"/>
<path style="fill:#0d080a; stroke:none;" d="M39 366L39 368L40 369L42 369L43 368L43 366L41 366L39 366z"/>
<path style="fill:#9594ab; stroke:none;" d="M124 367L123 369L123 372L125 372L128 372L128 370L126 367L124 367z"/>
<path style="fill:#a6d7f6; stroke:none;" d="M0 385L0 387C9.9192 387.008 17.9022 390.797 28 390L28 392C21.8624 392.127 17.0502 392.382 11 391L11 393L10 394L9 393C6.92522 389.596 3.77711 388.877 0 388L0 390L0 401L2 401L7 399C7.8569 409.364 14.4227 418.456 17.5718 428.17C21.8001 441.213 23.8089 460.332 22 474L21 473C20.7164 470.147 20.4426 468.397 22 466L22 464C20.5785 462.212 20.3026 461.294 20 459L18 459L17 468L19 468C17.6329 474.593 22.314 475.927 25.3657 481.04C28.876 486.921 29.9441 493.251 30 500L32 500L35 500L35 498C35.1744 495.388 35.4181 494.057 37 492L37 490C33.6134 484.501 34.8559 474.502 30 471L32 470C31.4167 465.622 28.1233 462.252 27.7191 457.961C26.3423 443.341 29.3315 430.374 32 416L30 416C29.0143 414.521 29 414.797 29 413L31 413L33 409L34 410L33 428L35 427C36.6268 425.233 37.3309 424.273 38 422L40 422L40 424C34.9734 437.95 39.9308 448.022 40.9105 462C41.8094 474.826 40.0031 487.289 39 500L41 500C43.6002 498.28 43.5242 497.034 43 494L45 494L48 445L46 445L45 444C50.5809 436.032 47.787 413.932 45 405L43 405C30.516 407.759 22.9722 410.206 18 423L17 422L17 420C24.2791 410.433 29.253 405.007 42 404L42 402C40.5215 401.014 40.7968 401 39 401L39 399L47 398L47 396C44.8696 386.063 56.5412 385.948 62.7407 383.019C66.0268 381.466 70.1273 377.814 73.5231 381.421C77.957 386.131 71.9667 396.941 79 399L79 401L78 406L76 406L76 403L75 404L74 408L76 408L79 408L79 406L79 402L80 403C80.6682 405.005 80.5847 404.246 80 406L81 407L82 406C87.352 404.596 90.3264 401.198 92 396L94 396L94 398C90.6094 401.458 86.3706 405.325 85 410L83 410L83 408L81 408L81 410C83.9827 426.816 75.3593 447.776 74 465L72 465L71 466L72 467L69 470L70 471L72 471L72 473L71 474L69 474L68 473L67 474C68.4735 479.032 67.1064 483.847 67 489L65 489L67 463L65 463C60.0367 475.901 60 486.255 60 500L62 500C76.6226 499.948 79.3785 479.385 78 468L80 468L79 469L79 471L81 471C81 465.919 81.1832 460.97 80 456L82 456C83.3559 453.057 85.4925 448.473 83 446L83 444L86 444L87 443C86.3847 425.246 88.9519 414.446 97 399L101 401L102 399L102 395L104 395L105 394L104 393L102 393L96 395L95 394L96 393L105 391L105 389C100.029 386.711 101.103 381.656 97 379L97 377L98 376L100 378L101 377L101 375L98 375L99 374L101 374L100 373L99 372C78.1544 372.058 62.4573 382.804 42.9105 386.726C30.0576 389.305 13.3011 385 0 385z"/>
<path style="fill:#161417; stroke:none;" d="M157 374L155 374C151.751 372.732 148.433 373.729 145 374L145 376L156 379L156 377L154 377L154 375L156 375C158.89 376.213 161.874 375.998 165 376L165 374C162.086 373.409 159.227 371.754 157 374z"/>
<path style="fill:#3c4d61; stroke:none;" d="M98 374L99 375L101 375L101 377L100 378L99 376L98 377L97 378L98 379C100.242 383.164 99.8966 387.558 105 389L105 391L95 393L95 395L97 395C109.259 389.291 106.42 385.051 103 373L98 374z"/>
<path style="fill:#4a6274; stroke:none;" d="M90 376L90 378L87 379L87 381L88 385L87 384L84 384L84 386C85.2882 389.361 86.9613 392.394 87 396L88 397L89 396C91.4683 390.118 90.3696 383.168 93 377L92 376L90 376z"/>
<path style="fill:#8d92a2; stroke:none;" d="M177 378L177 380C177.975 382.311 178.165 383.492 178 386L183 386L183 388L183 391L181 391L172 391L172 393L175 393C175.332 398.007 177.843 402.171 179 407L177 407C175.851 404.29 175.254 401.932 175 399L173 399C173.463 404.264 175.241 408.259 179 412L177 413L178 414L180 414L182 413C182 414.853 181.7 414.35 183 415C183.307 417.123 183.382 417.686 185 419L184 420L182 420L181 419L181 421L181 423L182 422C182.921 427.441 176.168 433.737 175 440L173 440L173 438L174 437L173 436L171 436C168.499 437.69 167.628 438.478 165 437L163 437L163 439C162.931 446.684 162.093 452.346 164 460L162 460L159 459L158 460L159 461L162 461L162 464L163 465C167.209 465.769 170.092 465.87 174 464L175 465L172 467L172 469C174.35 472.02 179.816 478.682 178 482L178 484L181 489L179 489L176 486L174 486L174 488C177.268 490.377 179.163 491.969 180 496L182 496L187 494L188 495C184.399 498.773 181.036 498.986 176 499L177 500L224 500C230.221 500 238.361 501.579 240 494L238 494L237 495L236 494C237.337 491.521 237.816 489.81 238 487L236 487C228.227 487.355 219.712 489.568 212 491L212 489C218.06 487.664 229.266 489.221 229 481L227 481C225.154 481.913 224.205 482.401 223 484L221 484L221 482L222 481L220 481C218.733 482.543 218.511 483.048 218 485L216 485C210.989 483.69 210.483 480.521 209 476L207 476L205 477L205 475C200.207 473.365 195.645 471.46 193 467L195 467L199 448L197 448L198 444L196 444L193 452C193.65 453.3 193.147 453 195 453L194 458L192 458L191 457L191 459L192 465L190 465C189.455 463.365 189.635 463.545 188 463L187 464L187 466L186 467L185 466L185 464L183 464L179 467L178 466L179 465C180.267 463.457 180.489 462.952 181 461L179 461L178 462C178 460.147 178.3 460.65 177 460L180 451L181 452C181.192 456.133 182.554 459.202 184 463L185 462L186 461L184 454L185 455L187 459L188 458L188 456C186.482 452.908 185.309 451.09 182 450L182 448L185 446L185 444L183 444C180.602 446.904 178.282 449.44 177 453L175 453L175 451C176.417 447.228 177.842 441.586 180.023 438.303C183.956 432.384 188.285 433.737 189 425L191 425L192 420L194 420L201 422L203 422L203 420L203 411L202 412L200 412L200 410L201 404L199 404C196.644 409.048 191.728 407.37 187 409L187 407C188.29 403.569 189.752 400.702 190 397L185 397L185 394L184 393L183 394L182 395L182 397C184.296 399.754 185.344 401.388 185 405L184 404C179.832 395.213 181.652 390.659 192 390L192 388L191 384L189 384L187 385L186 384L187 383L191 381L191 379L189 379L177 378z"/>
<path style="fill:#32455a; stroke:none;" d="M47 398L39 399L39 401L42 402L42 404C29.5401 404.535 19.257 409.892 17 423L18 422C26.2095 411.211 31.2784 407.016 45 405L45 408C48.0275 413.666 46.0105 418.098 46.6196 424C47.3259 430.844 49 436.849 49 444L48 443L48 441L47 442L45 443L45 445L47 445C50.3761 456.422 47.7935 470.589 45.5139 482C44.6653 486.248 45.7025 490.433 43 494L43 496C44.2767 497.915 44.2767 497.085 43 499L44 500L46 500C51.4688 496.455 49.6901 485.832 50.0895 480C51.2188 463.509 49.2 443.961 53 428L54 429C54 453.319 58 475.825 58 500L60 500C60 486.169 61.5489 476.108 65 463L67 463L67 465C64.3038 473.001 65.0639 480.604 65 489L67 489C67.2137 484.024 68.9844 478.731 67 474L68 473L69 474L71 474L72 473L72 471L70 471L69 470L71 470C71.4653 468.069 71.5743 467.809 71 466L72 465L74 465C75.5568 452.682 76.441 439.979 79.7948 428C81.1018 423.332 81.5349 418.961 76 418L76 416L75 415L74 416L75 417L74 425L75 424L77 419L79 419L79 421C75.2094 425.793 73.8825 433.998 73 440L71 440L71 438C76.0559 426.145 69.189 420.576 67 410L65 410L59 412L59 410L66 409C63.2368 400.58 56.2265 394.882 55 386L57 386L61 386L61 389C65.7327 395.021 65.4644 398.97 74 399L74 401L70 401L71 402C72.1953 404.166 72.691 405.553 73 408L74 407L75 403L76 404L76 406L78 406L79 399L77 399C75.3976 394.33 77.3548 383.142 72.6821 380.336C68.8483 378.035 65.1618 381.472 61.8302 382.965C53.9993 386.476 44.407 386.546 47 398z"/>
<path style="fill:#87b3d6; stroke:none;" d="M55 386L55 388C56.6942 395.791 63.0734 400.383 65 408L67 408L73 408L73 406C72.3264 403.703 72.0347 403.226 70 402L71 401L73 401L74 400L73 399C65.5972 398.759 63.1713 392.48 61 386L59 386L55 386z"/>
<path style="fill:#4e6377; stroke:none;" d="M0 387L1 388C4.62173 389.65 7.34382 390.977 10 394L11 393L11 391L13 391C17.7791 393.862 22.7389 392.226 28 392L28 390C18.0736 390.425 9.8439 387.001 0 387z"/>
<path style="fill:#43596b; stroke:none;" d="M33 391L33 393L35 393L35 395L36 396C38.4867 394.612 40.0842 393.122 42 391L41 390C37.9153 389.622 35.9039 389.889 33 391z"/>
<path style="fill:#17181d; stroke:none;" d="M159 391L158 393C153.836 392.354 151.747 392.535 151 397L153 396L154 394L155 395L155 397L156 398L157 397L160 392L159 391z"/>
<path style="fill:#444750; stroke:none;" d="M157 406L159 406C162.748 402.031 161.762 396.74 166 393L166 391L164 391C160.547 394.343 158.267 401.313 157 406z"/>
<path style="fill:#0e1013; stroke:none;" d="M162 409L164 409C171.074 405.588 169.018 399.683 169 393L171 393L170 411L172 411L172 407L173 408L177 413L179 413C176.641 408.231 173.81 404.378 173 399L175 399L176 407L178 407L179 406L179 404C177.237 400.37 175.524 397.024 175 393L173 393C164.653 387.356 163.159 403.93 162 409z"/>
<path style="fill:#040607; stroke:none;" d="M334 392L335 394C338.713 397.772 343.766 399.803 347 404L349 404L350 402C346.925 396.203 340.426 392.566 334 392z"/>
<path style="fill:#203342; stroke:none;" d="M102 395C101.042 400.986 95.8496 404.15 95 410L93 410L92 411L93 412C92.0294 416.625 88.8202 420.591 88.1443 425.09C87.1798 431.508 90.2654 437.629 89.8156 444C88.5106 462.484 84.2725 481.328 79 499L80 500L97 500C98.2902 490.379 101.151 479.734 100.907 470.039C100.308 446.284 93.9822 414.77 110 394L109 393L107 393L102 395z"/>
<path style="fill:#41596e; stroke:none;" d="M19 395L19 397L23 400L25 400L32 400L32 398C27.722 395.379 23.9425 395.014 19 395z"/>
<path style="fill:#405b6f; stroke:none;" d="M92 396L92 398C88.4712 401.532 85.4149 404.54 81 407L80 406L81 405L80 402L79 403L79 408L76 408L75 409L77 414L79 414L81 408L83 408L83 410L85 410L85 407C89.3691 404.446 91.7499 401.496 94 397C93.3502 395.7 93.8532 396 92 396z"/>
<path style="fill:#7faed1; stroke:none;" d="M0 401L0 403L0 427L2 427C5.67382 424.575 8.64143 424.039 13 424L13 422C10.0192 419.266 7.89739 419.551 4 420L4 418C3.35015 416.7 3.85321 417 2 417L2 415L3 414L5 414L5 417L6 418L8 418L8 416C5.91425 414.133 4.75359 413.434 2 413L2 410L1 408L3 408L9 410L10 408C9.35015 406.7 9.85321 407 8 407L7 399L5 399L0 401z"/>
<path style="fill:#739bbc; stroke:none;" d="M97 399L96 400C93.5386 404.017 90.2687 407.425 89 412L90 411L91 412L90 413L90 418L92 418C92.4761 415.123 92.5615 412.863 92 410L94 410C96.0806 406.794 97.8653 404.28 101 402L100 401L97 399z"/>
<path style="fill:#4b6577; stroke:none;" d="M82 401L82 403L82 405L84 405L84 403C83.4549 401.365 83.6352 401.545 82 401z"/>
<path style="fill:#2c4a5c; stroke:none;" d="M112 402L112 405C108.722 411.82 109 421.536 109 429C109 454.259 118.486 477.118 128 500L130 500L131 499C112.083 470.263 109.77 434.753 114 402L112 402z"/>
<path style="fill:#446073; stroke:none;" d="M1 404L1 406L7 407L7 405L7 403L5 403L1 404z"/>
<path style="fill:#3f7999; stroke:none;" d="M349 403L348 405L348 407L350 407L352 406L352 409L356 415L355 416C352.558 413.13 350.67 411.047 347 410L347 413C342.459 421.617 350.877 431.031 353.454 439.17C354.913 443.774 354.792 450.151 355 455L357 455C358.486 460.027 357.947 464.899 357 470L359 470L361 474L360 475L360 473L357 473L357 475C358.112 479.547 359.897 483.176 360 488L358 488C357.979 485.15 357.81 482.729 357 480L356 481C356.014 485.213 355.989 496.221 359.589 498.972C362.939 501.533 370.964 500 375 500L375 498L375 438C375 431.459 377.36 419.315 374.397 413.433C373.012 410.685 368.268 410.135 366 408L365 409L364 410L363 414L362 413L363 404L361 404L359 404L359 406L360 407L358 407C355.283 404.624 352.507 403.755 349 403z"/>
<path style="fill:#487d9d; stroke:none;" d="M320 406L320 408C313.645 411.115 313.35 418.767 307 422L307 420L307 415L306 416C299.664 444.426 285.547 466.931 274 493L272 493L272 491L276 486L275 485L274 486L272 486L274 483L273 482L254 498L254 500L256 500C267.044 500 273.471 499.831 279 489L280 490L280 492C277.46 494.484 277.112 496.476 277 500L279 500C284.025 500 294.126 501.943 298.362 498.972C302.317 496.199 304.479 488.221 306.601 484C314.684 467.926 317.902 452.206 322 435L323 436C321.964 460.124 307.392 477.811 301 500L303 500C306.912 500 315.068 501.553 318.258 498.972C321.373 496.452 322.899 475.877 322 472L323 471L324 472C326.731 480.277 328.528 485.223 328 494L326 494L325 489L324 490L326 500L328 500C332.557 500 342.692 501.907 346.397 498.972C348.75 497.109 347.999 492.617 348 490L348 465L349 466L351 466L351 464C349.384 443.522 342.78 426.948 336 408L334 408L334 410L333 419L331 419L331 417C329.113 414.428 327.953 412.044 327 409L325 409L325 411C323.015 412.277 322.15 412.981 321 415L319 415L318 414L318 412L319 411L321 411L322 410L322 408L322 406L320 406z"/>
<path style="fill:#465e70; stroke:none;" d="M114 407L114 409C113.934 416.975 111.552 423.794 116 431L115 432L114 430L113 431L113 433L116 437L118 437L118 435C117.524 426.041 118.056 415.638 116 407L114 407z"/>
<path style="fill:#364f62; stroke:none;" d="M1 408L1 410C1.98567 411.479 2 411.203 2 413L5 413L8 417L7 418L6 417C5.01432 415.521 5 415.797 5 414L3 414L2 415L2 417L4 420L6 420L13 420L13 418L11 408L9 408L9 410L7 410C4.98681 408.775 3.34146 408.355 1 408z"/>
<path style="fill:#0b0e11; stroke:none;" d="M59 410L59 412L75 409L74 408L59 410z"/>
<path style="fill:#324c60; stroke:none;" d="M33 409L33 411L29 413L29 415L32 416L32 418C26.7638 430.446 27.5401 443.937 27.4429 456.985C27.4077 461.711 32.6493 465.737 30 470L31 471L32 472C33.8021 478.097 33.3282 483.988 36 490L37 489C36.8232 484.881 37.1757 477.774 34 475L35 474C34.0206 468.802 33.1532 463.865 31 459L33 459L33 457L31 457L29 449L31 449L30 448L28 448C28.062 441.066 29.5525 433.585 36 430L36 432C34.2491 442.611 38.1101 452.706 39.696 463C40.8889 470.743 40 479.175 40 487L41 486C41 477.142 41.8524 467.791 40.7106 459C39.8406 452.302 37.1146 445.763 37.0185 439C36.933 432.984 39.6121 427.839 40 422L38 422L34 428L33 427L33 425C34.4032 420.253 34.9422 413.629 33 409z"/>
<path style="fill:#749dc1; stroke:none;" d="M71 440L73 440C74.5442 433.248 76.2449 426.368 79 420L78 419L77 420L75 425L74 424L74 416L75 415L76 416L76 418L79 418L80 420L81 419L82 418L81 411L79 411L79 413L78 414L77 413L77 411C74.7234 409.276 67.9835 407.309 67.5463 412.094C67.2445 415.397 71.8129 422.202 72.6644 426C73.761 430.892 71.582 435.224 71 440z"/>
<path style="fill:#435771; stroke:none;" d="M90 411L89 412C87.9168 422.88 86.5327 432.945 87 444L84 444L83 445C84.4171 448.577 83.1066 452.212 83 456L81 456L80 457L81 458L81 471L79 471L79 469L80 468L78 468C78.1901 470.971 78.8338 473.26 80 476L81 475L83 462L84 463C83.4468 475.883 76.2953 487.381 76 500L78 500C80.5747 496.606 80.2493 492.03 81.635 488C86.421 474.082 89.0759 458.681 89.9066 444C90.4471 434.449 85.4058 427.391 92 419C91.3502 417.7 91.8532 418 90 418L91 412L90 411z"/>
<path style="fill:#52697b; stroke:none;" d="M105 413L103 427L105 427L107 414C106.35 412.7 106.853 413 105 413z"/>
<path style="fill:#0e161b; stroke:none;" d="M12 420L12 422L13 424L11 424C6.79373 424.101 3.74533 425.117 0 427L0 429L1 430L2 429C6.55908 425.991 10.9741 426.486 16 425L16 423L14 420L12 420z"/>
<path style="fill:#4e6573; stroke:none;" d="M123 421L123 423C121.664 424.826 121.31 425.753 121 428L123 428C124.591 425.686 124.858 423.81 125 421L123 421z"/>
<path style="fill:#212023; stroke:none;" d="M182 422L181 423L181 427L183 427L182 422z"/>
<path style="fill:#3e6079; stroke:none;" d="M0 500L2 500L4 500L4 497C8.20933 490.66 11.2818 481.406 13 474L15 474C16.5982 475.481 17.1083 476.061 18 478L19 477L21 476L20 475C18.7828 472.352 18.6455 470.9 19 468L17 468L18 459L20 459C20.168 461.403 20.1969 462.46 22 464L22 466C19.599 468.181 20.6231 470.948 21 474L22 473C25.5533 463.358 20.8513 449.761 19.3449 440C18.7164 435.927 19.7762 431.235 17.4398 427.473C14.921 423.417 4.01213 426.108 1.6034 429.228C-1.8772 433.737 0 443.596 0 449L0 500z"/>
<path style="fill:#0e1217; stroke:none;" d="M46 427L46 429L48 444L49 443C49 437.66 49.5211 432.146 48 427L46 427z"/>
<path style="fill:#485868; stroke:none;" d="M131 427L131 429L132 440L133 439C134.12 434.926 133.179 431.169 133 427L131 427z"/>
<path style="fill:#020406; stroke:none;" d="M53 428L52 429C52 451.052 54.343 477.739 48 499L49 500L58 500L58 498C58 491.187 59.1624 483.709 58.4468 477C57.783 470.777 54.2537 465.11 54.0185 458.996C53.6617 449.718 56.6013 436.582 53 428z"/>
<path style="fill:#546c7d; stroke:none;" d="M103 429L103 431L104 436L105 435L106 430L105 429L103 429z"/>
<path style="fill:#000000; stroke:none;" d="M28 448L30 448L31 449L29 449C29.6789 452.43 29.98 455.065 33 457L33 459L31 459C32.7577 464.404 34.2853 469.257 34 475L36 475L37 500L39 500C42.0395 475.949 35.1795 453.675 36 430C28.8017 432.623 28.0195 441.222 28 448z"/>
<path style="fill:#121316; stroke:none;" d="M197 434L197 436C198.505 439.012 199.76 440.075 203 441L203 439C201.267 437.243 200.659 436.358 200 434L197 434z"/>
<path style="fill:#324f61; stroke:none;" d="M112 435C114.637 443.173 114.324 461.607 121 467L121 469C119.304 477.231 129.17 485.513 129 494L130 495L132 495L133 494L133 497C133.986 498.479 134 498.203 134 500L136 500L136 498L136 492L134 492C123.901 477.886 116.145 455.542 118 438L116 438L114 435L112 435z"/>
<path style="fill:#0a1115; stroke:none;" d="M322 435L321 436C320.965 448.73 314.67 459.658 313 472L314 471C319.306 463.907 325.529 443.489 322 435z"/>
<path style="fill:#14171b; stroke:none;" d="M156 437L155 438L156 451L157 450L159 450L160 451L160 460L162 460L164 460L164 458C161.604 450.632 158.006 444.915 158 437L156 437z"/>
<path style="fill:#000000; stroke:none;" d="M133 438C133.162 452.656 141.371 468.029 147.552 481C150.191 486.54 153.406 493.659 158.174 497.682C161.31 500.328 165.151 499.997 169 500L168 498C164.047 493.978 157.565 489.818 157 484L155 484C144.281 470.195 142.648 451.524 133 438z"/>
<path style="fill:#4a4f5a; stroke:none;" d="M138 443L139 444L146 440L146 438L144 438L138 443z"/>
<path style="fill:#444e5c; stroke:none;" d="M151 439L151 441C151.15 443.937 150.838 445.7 149 448L149 450C150.733 453.8 155.419 461.748 158 454L154 456L153 455C153.709 449.387 153.443 444.609 153 439L151 439z"/>
<path style="fill:#15161a; stroke:none;" d="M187 439L186 440L184 441L184 443C187.704 446.834 189.218 450.555 195 451L195 449L195 443L193 443L191 443L191 445L190 446L188 446L188 444L187 439z"/>
<path style="fill:#182834; stroke:none;" d="M331 440C331.096 451.642 328.508 464.805 332 476L333 475C333 464.223 336.213 449.802 331 440z"/>
<path style="fill:#060708; stroke:none;" d="M197 442L197 444L197 446L198 447L199 446C199.574 444.191 199.465 443.931 199 442L197 442z"/>
<path style="fill:#49515c; stroke:none;" d="M145 454L147 454L148 453L148 451C147.031 448.229 146.957 445.938 147 443L145 443C142.59 446.478 144.418 450.038 145 454z"/>
<path style="fill:#040506; stroke:none;" d="M217 463L217 465L218 466L219 465L220 462L217 462C215.497 458.382 215.329 455.843 216 452L218 452L218 454C216.7 454.65 217 454.147 217 456L218 457L219 456L222 445C216.302 447.232 206.713 461.208 217 463z"/>
<path style="fill:#080b0e; stroke:none;" d="M201 446L200 447C197.736 451.116 197.016 454.324 197 459L198 458L199 457C198.014 455.521 198 455.797 198 454L200 454L200 467L202 467L204 467L204 465C200.211 459.011 203.432 452.269 201 446z"/>
<path style="fill:#658db0; stroke:none;" d="M130 447L129 448L127 454L129 454C130.339 456.066 130.635 456.525 133 457L133 459L132 460L131 459C127.135 459.672 126.503 461.21 127 465L128 464L130 464L130 466L128 469L129 470C130.608 468.55 131.064 467.949 132 466L134 466L134 468L133 472L135 472L136 474L135 475L134 474L133 475L134 476C134.404 481.118 135.805 484.965 132 489L133 491L136 492L136 494L136 500L138 500L160 500L159 498C148.951 486.351 140.483 469.012 137 454L136 455L136 457L135 456C133.179 452.896 132.089 450.62 132 447L130 447z"/>
<path style="fill:#0e0f11; stroke:none;" d="M171 448L171 450L171 453L173 453L173 448L171 448z"/>
<path style="fill:#0c0f13; stroke:none;" d="M185 450L185 452L188 458L190 458L190 456C189.075 452.76 188.012 451.505 185 450z"/>
<path style="fill:#090d11; stroke:none;" d="M207 450L207 452L205 453L205 455L207 455L207 457L205 457L204 461L206 461L213 452L212 451L210 451L208 452C208 450.147 208.3 450.65 207 450z"/>
<path style="fill:#0a0d10; stroke:none;" d="M180 451L179 452C178.279 455.56 177.365 458.36 178 462L179 461L181 461L181 463L178 465L178 467L180 467L185 464L185 466L186 467L187 466C187.83 461.243 186.928 458.356 185 454L184 455L184 457C184.721 459.166 185.082 460.722 185 463L184 462L180 451z"/>
<path style="fill:#080a0d; stroke:none;" d="M171 454L171 456L169 460L170 461L172 461L173 454L171 454z"/>
<path style="fill:#06090c; stroke:none;" d="M190 459L190 465L192 465C191.745 462.511 191.416 461.042 190 459z"/>
<path style="fill:#0d1014; stroke:none;" d="M195 459L195 461L196 467L194 467L193 468L194 471L195 470C197.818 466.452 197.766 463.337 197 459L195 459z"/>
<path style="fill:#090d10; stroke:none;" d="M83 462L82 463C81.9675 474.765 76.6431 487.773 73 499L74 500L76 500C76.5978 488.327 87.8154 473.584 83 462z"/>
<path style="fill:#34536d; stroke:none;" d="M106 463L106 466C103.491 472.033 106.097 479.416 105.835 485.715C105.633 490.563 103.583 495.218 103 500L105 500L117 500L117 498C115.768 494.21 113.739 490.569 116 487L116 485L114 485C114.964 480.263 113.189 469.518 108 468L108 463L106 463z"/>
<path style="fill:#2b4c5b; stroke:none;" d="M312 471L311 472C309.315 481.445 302.641 490.137 299 499L300 500L301 499C305.955 490.508 310.399 481.15 314 472L312 471z"/>
<path style="fill:#235167; stroke:none;" d="M322 471L322 473C322.703 480.792 320.463 492.118 319 500L321 500L326 500L326 498L324 489L325 490L326 494L328 494C329.127 484.69 326.892 479.813 324 471L322 471z"/>
<path style="fill:#81bcde; stroke:none;" d="M13 474L12 476C9.95607 484.179 5.25933 491.592 4 500L6 500C9.61398 496.63 10.8633 493.357 16 492L16 494C15.277 497.793 16.1451 499.331 20 500L20 498C19.8283 489.727 16.9286 483.478 18 475L16 474L13 474z"/>
<path style="fill:#182e3c; stroke:none;" d="M20 500L22 500L30 500L30 498C29.8704 491.722 28.8106 485.496 25.3657 480.109C23.7186 477.533 20.0108 474.843 17.858 478.576C14.6036 484.22 19.9487 493.807 20 500z"/>
<path style="fill:#5b5d67; stroke:none;" d="M184 483L184 485C187.714 488.114 190.898 490.671 195 487C198.518 488.655 199.934 488.33 202 485L201 484L200 485L200 487L198 487C194.617 480.873 190.214 481.036 184 483z"/>
<path style="fill:#627083; stroke:none;" d="M157 484L156 486C157.373 488.547 158.218 489.188 161 490L161 488L157 484z"/>
<path style="fill:#344a61; stroke:none;" d="M75 487L75 490C72.0397 492.948 70.9373 495.965 70 500L72 500C74.5448 496.709 76.5184 491.011 75 487z"/>
<path style="fill:#47687f; stroke:none;" d="M116 488L116 490L120 500L122 500L123 499C120.877 495.562 119.392 491.794 118 488L116 488z"/>
<path style="fill:#2f4f5e; stroke:none;" d="M279 489L278 490L271 499L272 500L277 500L277 498C277.764 494.917 279.677 492.112 279 489z"/>
<path style="fill:#2e4a5c; stroke:none;" d="M7 499L8 500L10 500L11 494L13 494L14 500L16 500L16 498L16 492L14 492C10.3297 493.551 9.07537 495.692 7 499z"/>
<path style="fill:#385669; stroke:none;" d="M35 492L35 494L35 500L37 500L37 492L35 492z"/>
<path style="fill:#000001; stroke:none;" d="M11 494L10 495L10 500L12 500L14 500L14 498L13 494L11 494z"/>
<path style="fill:#6fa7cc; stroke:none;" d="M132 494L130 495L129 496L129 498L134 500L134 498L132 494z"/>
</svg>
